<svg width="800" height="500" viewBox="0 0 800 500" fill="none" xmlns="http://www.w3.org/2000/svg">
  <!-- Mac window frame -->
  <rect width="800" height="500" rx="12" fill="#0D0D0D"/>
  
  <!-- Window content area -->
  <rect x="1" y="30" width="798" height="469" rx="0" fill="#1A1A1A"/>
  
  <!-- Title bar -->
  <rect width="800" height="30" rx="12" fill="#111111"/>
  
  <!-- Window controls -->
  <circle cx="20" cy="15" r="6" fill="#FF5F57"/>
  <circle cx="40" cy="15" r="6" fill="#FEBC2E"/>
  <circle cx="60" cy="15" r="6" fill="#28C840"/>
  
  <!-- App content -->
  <rect x="20" y="50" width="250" height="430" rx="8" fill="#222222"/>
  <rect x="290" y="50" width="490" height="430" rx="8" fill="#222222"/>
  
  <!-- Sidebar content -->
  <rect x="35" y="70" width="220" height="30" rx="4" fill="#333333"/>
  <rect x="45" y="82" width="150" height="6" rx="3" fill="#9333EA"/>
  
  <rect x="35" y="110" width="220" height="30" rx="4" fill="#333333"/>
  <rect x="45" y="122" width="120" height="6" rx="3" fill="#666666"/>
  
  <rect x="35" y="150" width="220" height="30" rx="4" fill="#333333"/>
  <rect x="45" y="162" width="170" height="6" rx="3" fill="#666666"/>
  
  <rect x="35" y="190" width="220" height="30" rx="4" fill="#333333"/>
  <rect x="45" y="202" width="140" height="6" rx="3" fill="#666666"/>
  
  <!-- Main content area -->
  <rect x="310" y="70" width="450" height="50" rx="6" fill="#333333"/>
  <rect x="330" y="92" width="250" height="6" rx="3" fill="#9333EA"/>
  
  <rect x="310" y="140" width="450" height="100" rx="6" fill="#333333"/>
  <rect x="330" y="160" width="410" height="6" rx="3" fill="#666666"/>
  <rect x="330" y="180" width="390" height="6" rx="3" fill="#666666"/>
  <rect x="330" y="200" width="300" height="6" rx="3" fill="#666666"/>
  <rect x="330" y="220" width="350" height="6" rx="3" fill="#666666"/>
  
  <!-- Input area -->
  <rect x="310" y="260" width="450" height="80" rx="6" fill="#333333"/>
  <rect x="330" y="280" width="410" height="6" rx="3" fill="#666666"/>
  <rect x="330" y="300" width="200" height="6" rx="3" fill="#666666"/>
  
  <!-- Button -->
  <rect x="690" y="360" width="70" height="30" rx="15" fill="url(#paint0_linear)"/>
  <text x="725" y="380" font-family="Arial" font-size="12" fill="white" text-anchor="middle">Send</text>
  
  <!-- Definition for the gradient -->
  <defs>
    <linearGradient id="paint0_linear" x1="690" y1="360" x2="760" y2="390" gradientUnits="userSpaceOnUse">
      <stop offset="0" stop-color="#9333EA"/>
      <stop offset="1" stop-color="#6366F1"/>
    </linearGradient>
  </defs>
</svg> 